<mxfile host="app.diagrams.net" modified="2023-08-16T07:06:56.958Z" agent="Mozilla/5.0 (Windows NT 10.0; Win64; x64) AppleWebKit/537.36 (KHTML, like Gecko) Chrome/115.0.0.0 Safari/537.36 Edg/115.0.1901.203" etag="Su4ALDspLfZ4vjMbCgxY" version="21.6.8" type="google">
  <diagram name="Page-1" id="5f0bae14-7c28-e335-631c-24af17079c00">
    <mxGraphModel grid="1" page="1" gridSize="10" guides="1" tooltips="1" connect="1" arrows="1" fold="1" pageScale="1" pageWidth="1100" pageHeight="850" background="none" math="0" shadow="0">
      <root>
        <mxCell id="0" />
        <mxCell id="1" parent="0" />
        <mxCell id="VNN5IsyoyI8zjH8ukerN-1" value="«component»&lt;br&gt;&lt;b&gt;Login&lt;/b&gt;" style="html=1;dropTarget=0;whiteSpace=wrap;" vertex="1" parent="1">
          <mxGeometry x="380" y="460" width="180" height="90" as="geometry" />
        </mxCell>
        <mxCell id="VNN5IsyoyI8zjH8ukerN-2" value="" style="shape=module;jettyWidth=8;jettyHeight=4;" vertex="1" parent="VNN5IsyoyI8zjH8ukerN-1">
          <mxGeometry x="1" width="20" height="20" relative="1" as="geometry">
            <mxPoint x="-27" y="7" as="offset" />
          </mxGeometry>
        </mxCell>
        <mxCell id="VNN5IsyoyI8zjH8ukerN-6" value="" style="rounded=0;orthogonalLoop=1;jettySize=auto;html=1;endArrow=halfCircle;endFill=0;endSize=6;strokeWidth=1;sketch=0;exitX=0;exitY=0.5;exitDx=0;exitDy=0;" edge="1" parent="1" source="VNN5IsyoyI8zjH8ukerN-9">
          <mxGeometry relative="1" as="geometry">
            <mxPoint x="710" y="440" as="sourcePoint" />
            <mxPoint x="640" y="505" as="targetPoint" />
          </mxGeometry>
        </mxCell>
        <mxCell id="VNN5IsyoyI8zjH8ukerN-7" value="" style="rounded=0;orthogonalLoop=1;jettySize=auto;html=1;endArrow=oval;endFill=0;sketch=0;sourcePerimeterSpacing=0;targetPerimeterSpacing=0;endSize=10;exitX=1;exitY=0.5;exitDx=0;exitDy=0;" edge="1" parent="1" source="VNN5IsyoyI8zjH8ukerN-1">
          <mxGeometry relative="1" as="geometry">
            <mxPoint x="630" y="385" as="sourcePoint" />
            <mxPoint x="640" y="505" as="targetPoint" />
          </mxGeometry>
        </mxCell>
        <mxCell id="VNN5IsyoyI8zjH8ukerN-8" value="" style="ellipse;whiteSpace=wrap;html=1;align=center;aspect=fixed;fillColor=none;strokeColor=none;resizable=0;perimeter=centerPerimeter;rotatable=0;allowArrows=0;points=[];outlineConnect=1;" vertex="1" parent="1">
          <mxGeometry x="645" y="380" width="10" height="10" as="geometry" />
        </mxCell>
        <mxCell id="VNN5IsyoyI8zjH8ukerN-9" value="«component»&lt;br&gt;&lt;b&gt;Registered User&lt;/b&gt;" style="html=1;dropTarget=0;whiteSpace=wrap;" vertex="1" parent="1">
          <mxGeometry x="730" y="460" width="180" height="90" as="geometry" />
        </mxCell>
        <mxCell id="VNN5IsyoyI8zjH8ukerN-10" value="" style="shape=module;jettyWidth=8;jettyHeight=4;" vertex="1" parent="VNN5IsyoyI8zjH8ukerN-9">
          <mxGeometry x="1" width="20" height="20" relative="1" as="geometry">
            <mxPoint x="-27" y="7" as="offset" />
          </mxGeometry>
        </mxCell>
        <mxCell id="VNN5IsyoyI8zjH8ukerN-11" value="" style="rounded=0;orthogonalLoop=1;jettySize=auto;html=1;endArrow=oval;endFill=0;sketch=0;sourcePerimeterSpacing=0;targetPerimeterSpacing=0;endSize=10;exitX=0.75;exitY=0;exitDx=0;exitDy=0;" edge="1" parent="1" source="VNN5IsyoyI8zjH8ukerN-1">
          <mxGeometry relative="1" as="geometry">
            <mxPoint x="570" y="515" as="sourcePoint" />
            <mxPoint x="638" y="360" as="targetPoint" />
            <Array as="points">
              <mxPoint x="515" y="360" />
            </Array>
          </mxGeometry>
        </mxCell>
        <mxCell id="VNN5IsyoyI8zjH8ukerN-12" value="«component»&lt;br&gt;&lt;b&gt;Conductor&lt;/b&gt;" style="html=1;dropTarget=0;whiteSpace=wrap;" vertex="1" parent="1">
          <mxGeometry x="730" y="320" width="180" height="90" as="geometry" />
        </mxCell>
        <mxCell id="VNN5IsyoyI8zjH8ukerN-13" value="" style="shape=module;jettyWidth=8;jettyHeight=4;" vertex="1" parent="VNN5IsyoyI8zjH8ukerN-12">
          <mxGeometry x="1" width="20" height="20" relative="1" as="geometry">
            <mxPoint x="-27" y="7" as="offset" />
          </mxGeometry>
        </mxCell>
        <mxCell id="VNN5IsyoyI8zjH8ukerN-14" value="" style="rounded=0;orthogonalLoop=1;jettySize=auto;html=1;endArrow=halfCircle;endFill=0;endSize=6;strokeWidth=1;sketch=0;exitX=0;exitY=0.444;exitDx=0;exitDy=0;exitPerimeter=0;" edge="1" parent="1" source="VNN5IsyoyI8zjH8ukerN-12">
          <mxGeometry relative="1" as="geometry">
            <mxPoint x="730" y="365" as="sourcePoint" />
            <mxPoint x="640" y="360" as="targetPoint" />
          </mxGeometry>
        </mxCell>
        <mxCell id="VNN5IsyoyI8zjH8ukerN-15" value="" style="rounded=0;orthogonalLoop=1;jettySize=auto;html=1;endArrow=oval;endFill=0;sketch=0;sourcePerimeterSpacing=0;targetPerimeterSpacing=0;endSize=10;exitX=0.5;exitY=0;exitDx=0;exitDy=0;" edge="1" parent="1" source="VNN5IsyoyI8zjH8ukerN-1">
          <mxGeometry relative="1" as="geometry">
            <mxPoint x="525" y="470" as="sourcePoint" />
            <mxPoint x="640" y="210" as="targetPoint" />
            <Array as="points">
              <mxPoint x="470" y="210" />
            </Array>
          </mxGeometry>
        </mxCell>
        <mxCell id="VNN5IsyoyI8zjH8ukerN-16" value="" style="ellipse;whiteSpace=wrap;html=1;align=center;aspect=fixed;fillColor=none;strokeColor=none;resizable=0;perimeter=centerPerimeter;rotatable=0;allowArrows=0;points=[];outlineConnect=1;" vertex="1" parent="1">
          <mxGeometry x="645" y="220" width="10" height="10" as="geometry" />
        </mxCell>
        <mxCell id="VNN5IsyoyI8zjH8ukerN-17" value="«component»&lt;br&gt;&lt;b&gt;Sheduler&lt;/b&gt;" style="html=1;dropTarget=0;whiteSpace=wrap;" vertex="1" parent="1">
          <mxGeometry x="730" y="168" width="180" height="90" as="geometry" />
        </mxCell>
        <mxCell id="VNN5IsyoyI8zjH8ukerN-18" value="" style="shape=module;jettyWidth=8;jettyHeight=4;" vertex="1" parent="VNN5IsyoyI8zjH8ukerN-17">
          <mxGeometry x="1" width="20" height="20" relative="1" as="geometry">
            <mxPoint x="-27" y="7" as="offset" />
          </mxGeometry>
        </mxCell>
        <mxCell id="VNN5IsyoyI8zjH8ukerN-20" value="«component»&lt;br&gt;&lt;b&gt;Guest User&lt;/b&gt;" style="html=1;dropTarget=0;whiteSpace=wrap;" vertex="1" parent="1">
          <mxGeometry x="730" y="590" width="180" height="90" as="geometry" />
        </mxCell>
        <mxCell id="VNN5IsyoyI8zjH8ukerN-21" value="" style="shape=module;jettyWidth=8;jettyHeight=4;" vertex="1" parent="VNN5IsyoyI8zjH8ukerN-20">
          <mxGeometry x="1" width="20" height="20" relative="1" as="geometry">
            <mxPoint x="-27" y="7" as="offset" />
          </mxGeometry>
        </mxCell>
        <mxCell id="VNN5IsyoyI8zjH8ukerN-26" value="" style="rounded=0;orthogonalLoop=1;jettySize=auto;html=1;endArrow=oval;endFill=0;sketch=0;sourcePerimeterSpacing=0;targetPerimeterSpacing=0;endSize=10;exitX=0.75;exitY=1;exitDx=0;exitDy=0;" edge="1" parent="1" source="VNN5IsyoyI8zjH8ukerN-1">
          <mxGeometry relative="1" as="geometry">
            <mxPoint x="570" y="515" as="sourcePoint" />
            <mxPoint x="640" y="630" as="targetPoint" />
            <Array as="points">
              <mxPoint x="515" y="630" />
            </Array>
          </mxGeometry>
        </mxCell>
        <mxCell id="VNN5IsyoyI8zjH8ukerN-27" value="" style="rounded=0;orthogonalLoop=1;jettySize=auto;html=1;endArrow=halfCircle;endFill=0;endSize=6;strokeWidth=1;sketch=0;exitX=0;exitY=0.433;exitDx=0;exitDy=0;exitPerimeter=0;" edge="1" parent="1" source="VNN5IsyoyI8zjH8ukerN-20">
          <mxGeometry relative="1" as="geometry">
            <mxPoint x="740" y="515" as="sourcePoint" />
            <mxPoint x="640" y="630" as="targetPoint" />
          </mxGeometry>
        </mxCell>
        <mxCell id="VNN5IsyoyI8zjH8ukerN-28" value="«component»&lt;br&gt;&lt;b&gt;Admin&lt;/b&gt;" style="html=1;dropTarget=0;whiteSpace=wrap;" vertex="1" parent="1">
          <mxGeometry x="730" y="850" width="180" height="90" as="geometry" />
        </mxCell>
        <mxCell id="VNN5IsyoyI8zjH8ukerN-29" value="" style="shape=module;jettyWidth=8;jettyHeight=4;" vertex="1" parent="VNN5IsyoyI8zjH8ukerN-28">
          <mxGeometry x="1" width="20" height="20" relative="1" as="geometry">
            <mxPoint x="-27" y="7" as="offset" />
          </mxGeometry>
        </mxCell>
        <mxCell id="VNN5IsyoyI8zjH8ukerN-30" value="" style="rounded=0;orthogonalLoop=1;jettySize=auto;html=1;endArrow=halfCircle;endFill=0;endSize=6;strokeWidth=1;sketch=0;exitX=-0.022;exitY=0.433;exitDx=0;exitDy=0;exitPerimeter=0;" edge="1" parent="1" source="VNN5IsyoyI8zjH8ukerN-28">
          <mxGeometry relative="1" as="geometry">
            <mxPoint x="740" y="639" as="sourcePoint" />
            <mxPoint x="630" y="890" as="targetPoint" />
          </mxGeometry>
        </mxCell>
        <mxCell id="VNN5IsyoyI8zjH8ukerN-31" value="" style="rounded=0;orthogonalLoop=1;jettySize=auto;html=1;endArrow=oval;endFill=0;sketch=0;sourcePerimeterSpacing=0;targetPerimeterSpacing=0;endSize=10;exitX=0.5;exitY=1;exitDx=0;exitDy=0;" edge="1" parent="1" source="VNN5IsyoyI8zjH8ukerN-1">
          <mxGeometry relative="1" as="geometry">
            <mxPoint x="525" y="560" as="sourcePoint" />
            <mxPoint x="630" y="890" as="targetPoint" />
            <Array as="points">
              <mxPoint x="470" y="890" />
            </Array>
          </mxGeometry>
        </mxCell>
        <mxCell id="VNN5IsyoyI8zjH8ukerN-32" value="Login Deatils" style="text;html=1;align=center;verticalAlign=middle;resizable=0;points=[];autosize=1;strokeColor=none;fillColor=none;" vertex="1" parent="1">
          <mxGeometry x="595" y="220" width="90" height="30" as="geometry" />
        </mxCell>
        <mxCell id="VNN5IsyoyI8zjH8ukerN-34" value="Login Deatils" style="text;html=1;align=center;verticalAlign=middle;resizable=0;points=[];autosize=1;strokeColor=none;fillColor=none;" vertex="1" parent="1">
          <mxGeometry x="595" y="510" width="90" height="30" as="geometry" />
        </mxCell>
        <mxCell id="VNN5IsyoyI8zjH8ukerN-35" value="Login Deatils" style="text;html=1;align=center;verticalAlign=middle;resizable=0;points=[];autosize=1;strokeColor=none;fillColor=none;" vertex="1" parent="1">
          <mxGeometry x="595" y="630" width="90" height="30" as="geometry" />
        </mxCell>
        <mxCell id="VNN5IsyoyI8zjH8ukerN-36" value="Login Deatils" style="text;html=1;align=center;verticalAlign=middle;resizable=0;points=[];autosize=1;strokeColor=none;fillColor=none;" vertex="1" parent="1">
          <mxGeometry x="565" y="910" width="90" height="30" as="geometry" />
        </mxCell>
        <mxCell id="VNN5IsyoyI8zjH8ukerN-37" value="" style="rounded=0;orthogonalLoop=1;jettySize=auto;html=1;endArrow=halfCircle;endFill=0;endSize=6;strokeWidth=1;sketch=0;" edge="1" parent="1">
          <mxGeometry relative="1" as="geometry">
            <mxPoint x="730" y="210" as="sourcePoint" />
            <mxPoint x="640" y="210" as="targetPoint" />
          </mxGeometry>
        </mxCell>
        <mxCell id="VNN5IsyoyI8zjH8ukerN-38" value="Login Deatils" style="text;html=1;align=center;verticalAlign=middle;resizable=0;points=[];autosize=1;strokeColor=none;fillColor=none;" vertex="1" parent="1">
          <mxGeometry x="595" y="370" width="90" height="30" as="geometry" />
        </mxCell>
        <mxCell id="VNN5IsyoyI8zjH8ukerN-41" value="«component»&lt;br&gt;&lt;b&gt;Password recovery&lt;/b&gt;" style="html=1;dropTarget=0;whiteSpace=wrap;" vertex="1" parent="1">
          <mxGeometry x="335" y="80" width="180" height="90" as="geometry" />
        </mxCell>
        <mxCell id="VNN5IsyoyI8zjH8ukerN-42" value="" style="shape=module;jettyWidth=8;jettyHeight=4;" vertex="1" parent="VNN5IsyoyI8zjH8ukerN-41">
          <mxGeometry x="1" width="20" height="20" relative="1" as="geometry">
            <mxPoint x="-27" y="7" as="offset" />
          </mxGeometry>
        </mxCell>
        <mxCell id="VNN5IsyoyI8zjH8ukerN-49" value="" style="shape=providedRequiredInterface;html=1;verticalLabelPosition=bottom;sketch=0;direction=south;" vertex="1" parent="1">
          <mxGeometry x="420" y="274.34" width="20" height="20" as="geometry" />
        </mxCell>
        <mxCell id="VNN5IsyoyI8zjH8ukerN-53" value="" style="endArrow=none;html=1;rounded=0;entryX=0.538;entryY=0.989;entryDx=0;entryDy=0;entryPerimeter=0;exitX=0;exitY=0.5;exitDx=0;exitDy=0;exitPerimeter=0;" edge="1" parent="1">
          <mxGeometry width="50" height="50" relative="1" as="geometry">
            <mxPoint x="430" y="275.3399999999999" as="sourcePoint" />
            <mxPoint x="431.8399999999999" y="170.01" as="targetPoint" />
            <Array as="points">
              <mxPoint x="430" y="275" />
            </Array>
          </mxGeometry>
        </mxCell>
        <mxCell id="VNN5IsyoyI8zjH8ukerN-54" value="" style="endArrow=none;html=1;rounded=0;entryX=1;entryY=0.5;entryDx=0;entryDy=0;entryPerimeter=0;exitX=0.276;exitY=-0.002;exitDx=0;exitDy=0;exitPerimeter=0;" edge="1" parent="1" source="VNN5IsyoyI8zjH8ukerN-1" target="VNN5IsyoyI8zjH8ukerN-49">
          <mxGeometry width="50" height="50" relative="1" as="geometry">
            <mxPoint x="430" y="450" as="sourcePoint" />
            <mxPoint x="430" y="280" as="targetPoint" />
          </mxGeometry>
        </mxCell>
        <mxCell id="yZAO2Q9PIL2GcM7bfzU0-3" value="«component»&lt;br&gt;&lt;b&gt;Verification&lt;/b&gt;" style="html=1;dropTarget=0;whiteSpace=wrap;" vertex="1" parent="1">
          <mxGeometry x="1160" y="168" width="180" height="90" as="geometry" />
        </mxCell>
        <mxCell id="yZAO2Q9PIL2GcM7bfzU0-4" value="" style="shape=module;jettyWidth=8;jettyHeight=4;" vertex="1" parent="yZAO2Q9PIL2GcM7bfzU0-3">
          <mxGeometry x="1" width="20" height="20" relative="1" as="geometry">
            <mxPoint x="-27" y="7" as="offset" />
          </mxGeometry>
        </mxCell>
        <mxCell id="yZAO2Q9PIL2GcM7bfzU0-5" value="«component»&lt;br&gt;&lt;b&gt;busses&lt;/b&gt;" style="html=1;dropTarget=0;whiteSpace=wrap;" vertex="1" parent="1">
          <mxGeometry x="1160" y="-10" width="180" height="90" as="geometry" />
        </mxCell>
        <mxCell id="yZAO2Q9PIL2GcM7bfzU0-6" value="" style="shape=module;jettyWidth=8;jettyHeight=4;" vertex="1" parent="yZAO2Q9PIL2GcM7bfzU0-5">
          <mxGeometry x="1" width="20" height="20" relative="1" as="geometry">
            <mxPoint x="-27" y="7" as="offset" />
          </mxGeometry>
        </mxCell>
        <mxCell id="yZAO2Q9PIL2GcM7bfzU0-11" value="«component»&lt;br&gt;&lt;b&gt;Delay&lt;/b&gt;" style="html=1;dropTarget=0;whiteSpace=wrap;" vertex="1" parent="1">
          <mxGeometry x="1160" y="-190" width="180" height="90" as="geometry" />
        </mxCell>
        <mxCell id="yZAO2Q9PIL2GcM7bfzU0-12" value="" style="shape=module;jettyWidth=8;jettyHeight=4;" vertex="1" parent="yZAO2Q9PIL2GcM7bfzU0-11">
          <mxGeometry x="1" width="20" height="20" relative="1" as="geometry">
            <mxPoint x="-27" y="7" as="offset" />
          </mxGeometry>
        </mxCell>
        <mxCell id="yZAO2Q9PIL2GcM7bfzU0-13" value="«component»&lt;br&gt;&lt;b&gt;SMS&lt;/b&gt;" style="html=1;dropTarget=0;whiteSpace=wrap;" vertex="1" parent="1">
          <mxGeometry x="1160" y="720" width="180" height="90" as="geometry" />
        </mxCell>
        <mxCell id="yZAO2Q9PIL2GcM7bfzU0-14" value="" style="shape=module;jettyWidth=8;jettyHeight=4;" vertex="1" parent="yZAO2Q9PIL2GcM7bfzU0-13">
          <mxGeometry x="1" width="20" height="20" relative="1" as="geometry">
            <mxPoint x="-27" y="7" as="offset" />
          </mxGeometry>
        </mxCell>
        <mxCell id="yZAO2Q9PIL2GcM7bfzU0-15" value="«component»&lt;br&gt;&lt;b&gt;Bookings&lt;/b&gt;" style="html=1;dropTarget=0;whiteSpace=wrap;" vertex="1" parent="1">
          <mxGeometry x="1160" y="-360" width="180" height="90" as="geometry" />
        </mxCell>
        <mxCell id="yZAO2Q9PIL2GcM7bfzU0-16" value="" style="shape=module;jettyWidth=8;jettyHeight=4;" vertex="1" parent="yZAO2Q9PIL2GcM7bfzU0-15">
          <mxGeometry x="1" width="20" height="20" relative="1" as="geometry">
            <mxPoint x="-27" y="7" as="offset" />
          </mxGeometry>
        </mxCell>
        <mxCell id="yZAO2Q9PIL2GcM7bfzU0-20" value="" style="rounded=0;orthogonalLoop=1;jettySize=auto;html=1;endArrow=halfCircle;endFill=0;endSize=6;strokeWidth=1;sketch=0;exitX=0.5;exitY=0;exitDx=0;exitDy=0;" edge="1" parent="1" source="VNN5IsyoyI8zjH8ukerN-17">
          <mxGeometry relative="1" as="geometry">
            <mxPoint x="890" y="240" as="sourcePoint" />
            <mxPoint x="1100" y="-130" as="targetPoint" />
            <Array as="points">
              <mxPoint x="820" y="-130" />
            </Array>
          </mxGeometry>
        </mxCell>
        <mxCell id="yZAO2Q9PIL2GcM7bfzU0-21" value="" style="rounded=0;orthogonalLoop=1;jettySize=auto;html=1;endArrow=halfCircle;endFill=0;endSize=6;strokeWidth=1;sketch=0;exitX=0.75;exitY=0;exitDx=0;exitDy=0;" edge="1" parent="1" source="VNN5IsyoyI8zjH8ukerN-17">
          <mxGeometry relative="1" as="geometry">
            <mxPoint x="890" y="240" as="sourcePoint" />
            <mxPoint x="1100" y="30" as="targetPoint" />
            <Array as="points">
              <mxPoint x="865" y="30" />
            </Array>
          </mxGeometry>
        </mxCell>
        <mxCell id="yZAO2Q9PIL2GcM7bfzU0-22" value="" style="rounded=0;orthogonalLoop=1;jettySize=auto;html=1;endArrow=halfCircle;endFill=0;endSize=6;strokeWidth=1;sketch=0;exitX=1;exitY=0.5;exitDx=0;exitDy=0;" edge="1" parent="1" source="VNN5IsyoyI8zjH8ukerN-17">
          <mxGeometry relative="1" as="geometry">
            <mxPoint x="1040" y="212.66" as="sourcePoint" />
            <mxPoint x="1100" y="212.66" as="targetPoint" />
          </mxGeometry>
        </mxCell>
        <mxCell id="yZAO2Q9PIL2GcM7bfzU0-24" value="" style="rounded=0;orthogonalLoop=1;jettySize=auto;html=1;endArrow=halfCircle;endFill=0;endSize=6;strokeWidth=1;sketch=0;exitX=0.5;exitY=1;exitDx=0;exitDy=0;" edge="1" parent="1" source="VNN5IsyoyI8zjH8ukerN-17">
          <mxGeometry relative="1" as="geometry">
            <mxPoint x="920" y="223" as="sourcePoint" />
            <mxPoint x="820" y="290" as="targetPoint" />
            <Array as="points">
              <mxPoint x="820" y="280" />
            </Array>
          </mxGeometry>
        </mxCell>
        <mxCell id="yZAO2Q9PIL2GcM7bfzU0-25" value="" style="rounded=0;orthogonalLoop=1;jettySize=auto;html=1;endArrow=halfCircle;endFill=0;endSize=6;strokeWidth=1;sketch=0;" edge="1" parent="1">
          <mxGeometry relative="1" as="geometry">
            <mxPoint x="910" y="230" as="sourcePoint" />
            <mxPoint x="1100" y="600" as="targetPoint" />
            <Array as="points">
              <mxPoint x="1010" y="230" />
              <mxPoint x="1010" y="600" />
            </Array>
          </mxGeometry>
        </mxCell>
        <mxCell id="yZAO2Q9PIL2GcM7bfzU0-32" value="" style="rounded=0;orthogonalLoop=1;jettySize=auto;html=1;endArrow=halfCircle;endFill=0;endSize=6;strokeWidth=1;sketch=0;exitX=0.25;exitY=0;exitDx=0;exitDy=0;" edge="1" parent="1" source="VNN5IsyoyI8zjH8ukerN-17">
          <mxGeometry relative="1" as="geometry">
            <mxPoint x="830" y="178" as="sourcePoint" />
            <mxPoint x="1100" y="-320" as="targetPoint" />
            <Array as="points">
              <mxPoint x="775" y="-320" />
            </Array>
          </mxGeometry>
        </mxCell>
        <mxCell id="yZAO2Q9PIL2GcM7bfzU0-33" value="" style="rounded=0;orthogonalLoop=1;jettySize=auto;html=1;endArrow=oval;endFill=0;sketch=0;sourcePerimeterSpacing=0;targetPerimeterSpacing=0;endSize=10;exitX=-0.001;exitY=0.437;exitDx=0;exitDy=0;exitPerimeter=0;" edge="1" parent="1" source="yZAO2Q9PIL2GcM7bfzU0-15">
          <mxGeometry relative="1" as="geometry">
            <mxPoint x="570" y="515" as="sourcePoint" />
            <mxPoint x="1100" y="-320" as="targetPoint" />
          </mxGeometry>
        </mxCell>
        <mxCell id="yZAO2Q9PIL2GcM7bfzU0-34" value="" style="rounded=0;orthogonalLoop=1;jettySize=auto;html=1;endArrow=oval;endFill=0;sketch=0;sourcePerimeterSpacing=0;targetPerimeterSpacing=0;endSize=10;" edge="1" parent="1">
          <mxGeometry relative="1" as="geometry">
            <mxPoint x="1160" y="-130" as="sourcePoint" />
            <mxPoint x="1100" y="-130" as="targetPoint" />
          </mxGeometry>
        </mxCell>
        <mxCell id="yZAO2Q9PIL2GcM7bfzU0-35" value="" style="rounded=0;orthogonalLoop=1;jettySize=auto;html=1;endArrow=oval;endFill=0;sketch=0;sourcePerimeterSpacing=0;targetPerimeterSpacing=0;endSize=10;exitX=-0.001;exitY=0.447;exitDx=0;exitDy=0;exitPerimeter=0;" edge="1" parent="1" source="yZAO2Q9PIL2GcM7bfzU0-5">
          <mxGeometry relative="1" as="geometry">
            <mxPoint x="1170" y="-120" as="sourcePoint" />
            <mxPoint x="1100" y="30" as="targetPoint" />
          </mxGeometry>
        </mxCell>
        <mxCell id="yZAO2Q9PIL2GcM7bfzU0-36" value="" style="rounded=0;orthogonalLoop=1;jettySize=auto;html=1;endArrow=oval;endFill=0;sketch=0;sourcePerimeterSpacing=0;targetPerimeterSpacing=0;endSize=10;exitX=0.001;exitY=0.508;exitDx=0;exitDy=0;exitPerimeter=0;" edge="1" parent="1" source="yZAO2Q9PIL2GcM7bfzU0-3">
          <mxGeometry relative="1" as="geometry">
            <mxPoint x="1160" y="214.5" as="sourcePoint" />
            <mxPoint x="1100" y="213" as="targetPoint" />
          </mxGeometry>
        </mxCell>
        <mxCell id="yZAO2Q9PIL2GcM7bfzU0-37" value="" style="rounded=0;orthogonalLoop=1;jettySize=auto;html=1;endArrow=oval;endFill=0;sketch=0;sourcePerimeterSpacing=0;targetPerimeterSpacing=0;endSize=10;exitX=0.5;exitY=0;exitDx=0;exitDy=0;" edge="1" parent="1" source="VNN5IsyoyI8zjH8ukerN-12">
          <mxGeometry relative="1" as="geometry">
            <mxPoint x="1157.12" y="389.0600000000002" as="sourcePoint" />
            <mxPoint x="820" y="290" as="targetPoint" />
            <Array as="points" />
          </mxGeometry>
        </mxCell>
        <mxCell id="yZAO2Q9PIL2GcM7bfzU0-40" value="" style="rounded=0;orthogonalLoop=1;jettySize=auto;html=1;endArrow=oval;endFill=0;sketch=0;sourcePerimeterSpacing=0;targetPerimeterSpacing=0;endSize=10;exitX=0;exitY=0.667;exitDx=0;exitDy=0;exitPerimeter=0;" edge="1" parent="1">
          <mxGeometry relative="1" as="geometry">
            <mxPoint x="1160" y="600.0299999999997" as="sourcePoint" />
            <mxPoint x="1100" y="600.5" as="targetPoint" />
          </mxGeometry>
        </mxCell>
        <mxCell id="yZAO2Q9PIL2GcM7bfzU0-43" value="" style="rounded=0;orthogonalLoop=1;jettySize=auto;html=1;endArrow=oval;endFill=0;sketch=0;sourcePerimeterSpacing=0;targetPerimeterSpacing=0;endSize=10;exitX=1;exitY=0.5;exitDx=0;exitDy=0;jumpStyle=arc;" edge="1" parent="1" source="yZAO2Q9PIL2GcM7bfzU0-11">
          <mxGeometry relative="1" as="geometry">
            <mxPoint x="1170" y="610" as="sourcePoint" />
            <mxPoint x="1480" y="370" as="targetPoint" />
            <Array as="points">
              <mxPoint x="1480" y="-145" />
            </Array>
          </mxGeometry>
        </mxCell>
        <mxCell id="yZAO2Q9PIL2GcM7bfzU0-50" value="«component»&lt;br&gt;&lt;b&gt;bus sheduling&lt;/b&gt;" style="html=1;dropTarget=0;whiteSpace=wrap;" vertex="1" parent="1">
          <mxGeometry x="1610" y="335" width="180" height="90" as="geometry" />
        </mxCell>
        <mxCell id="yZAO2Q9PIL2GcM7bfzU0-51" value="" style="shape=module;jettyWidth=8;jettyHeight=4;" vertex="1" parent="yZAO2Q9PIL2GcM7bfzU0-50">
          <mxGeometry x="1" width="20" height="20" relative="1" as="geometry">
            <mxPoint x="-27" y="7" as="offset" />
          </mxGeometry>
        </mxCell>
        <mxCell id="yZAO2Q9PIL2GcM7bfzU0-52" value="" style="rounded=0;orthogonalLoop=1;jettySize=auto;html=1;endArrow=oval;endFill=0;sketch=0;sourcePerimeterSpacing=0;targetPerimeterSpacing=0;endSize=10;exitX=1;exitY=0.5;exitDx=0;exitDy=0;" edge="1" parent="1" source="yZAO2Q9PIL2GcM7bfzU0-5">
          <mxGeometry relative="1" as="geometry">
            <mxPoint x="1170" y="40" as="sourcePoint" />
            <mxPoint x="1430" y="35" as="targetPoint" />
          </mxGeometry>
        </mxCell>
        <mxCell id="yZAO2Q9PIL2GcM7bfzU0-55" value="" style="ellipse;whiteSpace=wrap;html=1;align=center;aspect=fixed;fillColor=none;strokeColor=none;resizable=0;perimeter=centerPerimeter;rotatable=0;allowArrows=0;points=[];outlineConnect=1;" vertex="1" parent="1">
          <mxGeometry x="1390.36" y="274.34" width="10" height="10" as="geometry" />
        </mxCell>
        <mxCell id="yZAO2Q9PIL2GcM7bfzU0-44" value="" style="rounded=0;orthogonalLoop=1;jettySize=auto;html=1;endArrow=halfCircle;endFill=0;endSize=6;strokeWidth=1;sketch=0;exitX=1;exitY=0.5;exitDx=0;exitDy=0;jumpStyle=arc;jumpSize=6;" edge="1" parent="1" source="yZAO2Q9PIL2GcM7bfzU0-13">
          <mxGeometry relative="1" as="geometry">
            <mxPoint x="919.9999999999999" y="222.95" as="sourcePoint" />
            <mxPoint x="1480" y="370" as="targetPoint" />
            <Array as="points">
              <mxPoint x="1480" y="765" />
            </Array>
          </mxGeometry>
        </mxCell>
        <mxCell id="yZAO2Q9PIL2GcM7bfzU0-58" value="" style="rounded=0;orthogonalLoop=1;jettySize=auto;html=1;endArrow=halfCircle;endFill=0;endSize=6;strokeWidth=1;sketch=0;fontSize=12;jumpStyle=arc;exitX=0.555;exitY=0.001;exitDx=0;exitDy=0;exitPerimeter=0;" edge="1" parent="1" source="yZAO2Q9PIL2GcM7bfzU0-50">
          <mxGeometry relative="1" as="geometry">
            <mxPoint x="1709.9" y="336.1700000000001" as="sourcePoint" />
            <mxPoint x="1430" y="34.78" as="targetPoint" />
            <Array as="points">
              <mxPoint x="1710" y="35" />
            </Array>
          </mxGeometry>
        </mxCell>
        <mxCell id="yZAO2Q9PIL2GcM7bfzU0-63" value="" style="rounded=0;orthogonalLoop=1;jettySize=auto;html=1;endArrow=halfCircle;endFill=0;endSize=6;strokeWidth=1;sketch=0;exitX=1.008;exitY=0.629;exitDx=0;exitDy=0;exitPerimeter=0;" edge="1" parent="1" source="VNN5IsyoyI8zjH8ukerN-17">
          <mxGeometry relative="1" as="geometry">
            <mxPoint x="920" y="246" as="sourcePoint" />
            <mxPoint x="1100" y="310" as="targetPoint" />
            <Array as="points">
              <mxPoint x="1030" y="225" />
              <mxPoint x="1030" y="310" />
            </Array>
          </mxGeometry>
        </mxCell>
        <mxCell id="yZAO2Q9PIL2GcM7bfzU0-65" value="" style="rounded=0;orthogonalLoop=1;jettySize=auto;html=1;endArrow=oval;endFill=0;sketch=0;sourcePerimeterSpacing=0;targetPerimeterSpacing=0;endSize=10;exitX=0.25;exitY=0;exitDx=0;exitDy=0;jumpStyle=arc;" edge="1" parent="1" source="yZAO2Q9PIL2GcM7bfzU0-50">
          <mxGeometry relative="1" as="geometry">
            <mxPoint x="1710" y="80" as="sourcePoint" />
            <mxPoint x="1100" y="310" as="targetPoint" />
            <Array as="points">
              <mxPoint x="1655" y="310" />
            </Array>
          </mxGeometry>
        </mxCell>
        <mxCell id="dIC6hFr3uILoWe_exuPJ-1" value="«component»&lt;br&gt;&lt;b&gt;Owner&lt;/b&gt;" style="html=1;dropTarget=0;whiteSpace=wrap;" vertex="1" parent="1">
          <mxGeometry x="730" y="720" width="180" height="90" as="geometry" />
        </mxCell>
        <mxCell id="dIC6hFr3uILoWe_exuPJ-2" value="" style="shape=module;jettyWidth=8;jettyHeight=4;" vertex="1" parent="dIC6hFr3uILoWe_exuPJ-1">
          <mxGeometry x="1" width="20" height="20" relative="1" as="geometry">
            <mxPoint x="-27" y="7" as="offset" />
          </mxGeometry>
        </mxCell>
        <mxCell id="dIC6hFr3uILoWe_exuPJ-3" value="" style="rounded=0;orthogonalLoop=1;jettySize=auto;html=1;endArrow=oval;endFill=0;sketch=0;sourcePerimeterSpacing=0;targetPerimeterSpacing=0;endSize=10;exitX=0.617;exitY=1.021;exitDx=0;exitDy=0;exitPerimeter=0;" edge="1" parent="1" source="VNN5IsyoyI8zjH8ukerN-1">
          <mxGeometry relative="1" as="geometry">
            <mxPoint x="525" y="560" as="sourcePoint" />
            <mxPoint x="640" y="760" as="targetPoint" />
            <Array as="points">
              <mxPoint x="490" y="760" />
            </Array>
          </mxGeometry>
        </mxCell>
        <mxCell id="dIC6hFr3uILoWe_exuPJ-4" value="" style="rounded=0;orthogonalLoop=1;jettySize=auto;html=1;endArrow=halfCircle;endFill=0;endSize=6;strokeWidth=1;sketch=0;exitX=0.001;exitY=0.429;exitDx=0;exitDy=0;exitPerimeter=0;" edge="1" parent="1" source="dIC6hFr3uILoWe_exuPJ-1">
          <mxGeometry relative="1" as="geometry">
            <mxPoint x="740" y="639" as="sourcePoint" />
            <mxPoint x="640" y="760" as="targetPoint" />
          </mxGeometry>
        </mxCell>
        <mxCell id="dIC6hFr3uILoWe_exuPJ-5" value="Login Deatils" style="text;html=1;align=center;verticalAlign=middle;resizable=0;points=[];autosize=1;strokeColor=none;fillColor=none;" vertex="1" parent="1">
          <mxGeometry x="595" y="770" width="90" height="30" as="geometry" />
        </mxCell>
        <mxCell id="dIC6hFr3uILoWe_exuPJ-6" value="«component»&lt;br&gt;&lt;b&gt;Database&lt;/b&gt;" style="html=1;dropTarget=0;whiteSpace=wrap;" vertex="1" parent="1">
          <mxGeometry x="1610" y="630" width="180" height="90" as="geometry" />
        </mxCell>
        <mxCell id="dIC6hFr3uILoWe_exuPJ-7" value="" style="shape=module;jettyWidth=8;jettyHeight=4;" vertex="1" parent="dIC6hFr3uILoWe_exuPJ-6">
          <mxGeometry x="1" width="20" height="20" relative="1" as="geometry">
            <mxPoint x="-27" y="7" as="offset" />
          </mxGeometry>
        </mxCell>
        <mxCell id="dIC6hFr3uILoWe_exuPJ-8" value="«component»&lt;br&gt;&lt;b&gt;Persistance&lt;/b&gt;" style="html=1;dropTarget=0;whiteSpace=wrap;" vertex="1" parent="1">
          <mxGeometry x="1610" y="850" width="180" height="90" as="geometry" />
        </mxCell>
        <mxCell id="dIC6hFr3uILoWe_exuPJ-9" value="" style="shape=module;jettyWidth=8;jettyHeight=4;" vertex="1" parent="dIC6hFr3uILoWe_exuPJ-8">
          <mxGeometry x="1" width="20" height="20" relative="1" as="geometry">
            <mxPoint x="-27" y="7" as="offset" />
          </mxGeometry>
        </mxCell>
        <mxCell id="dIC6hFr3uILoWe_exuPJ-10" value="«component»&lt;br&gt;&lt;b&gt;Conductors&lt;/b&gt;" style="html=1;dropTarget=0;whiteSpace=wrap;" vertex="1" parent="1">
          <mxGeometry x="1160" y="560" width="180" height="90" as="geometry" />
        </mxCell>
        <mxCell id="dIC6hFr3uILoWe_exuPJ-11" value="" style="shape=module;jettyWidth=8;jettyHeight=4;" vertex="1" parent="dIC6hFr3uILoWe_exuPJ-10">
          <mxGeometry x="1" width="20" height="20" relative="1" as="geometry">
            <mxPoint x="-27" y="7" as="offset" />
          </mxGeometry>
        </mxCell>
        <mxCell id="dIC6hFr3uILoWe_exuPJ-12" value="" style="rounded=0;orthogonalLoop=1;jettySize=auto;html=1;endArrow=oval;endFill=0;sketch=0;sourcePerimeterSpacing=0;targetPerimeterSpacing=0;endSize=10;" edge="1" parent="1" source="dIC6hFr3uILoWe_exuPJ-6">
          <mxGeometry relative="1" as="geometry">
            <mxPoint x="1170" y="610.0299999999997" as="sourcePoint" />
            <mxPoint x="1700" y="790" as="targetPoint" />
          </mxGeometry>
        </mxCell>
        <mxCell id="dIC6hFr3uILoWe_exuPJ-13" value="" style="rounded=0;orthogonalLoop=1;jettySize=auto;html=1;endArrow=halfCircle;endFill=0;endSize=6;strokeWidth=1;sketch=0;exitX=0.5;exitY=0;exitDx=0;exitDy=0;" edge="1" parent="1" source="dIC6hFr3uILoWe_exuPJ-8">
          <mxGeometry relative="1" as="geometry">
            <mxPoint x="919.9999999999999" y="222.95" as="sourcePoint" />
            <mxPoint x="1700" y="790" as="targetPoint" />
          </mxGeometry>
        </mxCell>
        <mxCell id="dIC6hFr3uILoWe_exuPJ-14" value="" style="rounded=0;orthogonalLoop=1;jettySize=auto;html=1;endArrow=oval;endFill=0;sketch=0;sourcePerimeterSpacing=0;targetPerimeterSpacing=0;endSize=10;jumpStyle=arc;" edge="1" parent="1">
          <mxGeometry relative="1" as="geometry">
            <mxPoint x="1610" y="890" as="sourcePoint" />
            <mxPoint x="1440" y="590" as="targetPoint" />
            <Array as="points">
              <mxPoint x="1561" y="890" />
              <mxPoint x="1560" y="590" />
            </Array>
          </mxGeometry>
        </mxCell>
        <mxCell id="dIC6hFr3uILoWe_exuPJ-16" value="" style="rounded=0;orthogonalLoop=1;jettySize=auto;html=1;endArrow=halfCircle;endFill=0;endSize=6;strokeWidth=1;sketch=0;" edge="1" parent="1">
          <mxGeometry relative="1" as="geometry">
            <mxPoint x="1340" y="590" as="sourcePoint" />
            <mxPoint x="1439" y="590" as="targetPoint" />
          </mxGeometry>
        </mxCell>
        <mxCell id="dIC6hFr3uILoWe_exuPJ-17" value="" style="rounded=0;orthogonalLoop=1;jettySize=auto;html=1;endArrow=halfCircle;endFill=0;endSize=6;strokeWidth=1;sketch=0;exitX=1;exitY=0.756;exitDx=0;exitDy=0;exitPerimeter=0;" edge="1" parent="1" source="yZAO2Q9PIL2GcM7bfzU0-5">
          <mxGeometry relative="1" as="geometry">
            <mxPoint x="1343" y="57.5" as="sourcePoint" />
            <mxPoint x="1433" y="58" as="targetPoint" />
          </mxGeometry>
        </mxCell>
        <mxCell id="dIC6hFr3uILoWe_exuPJ-18" value="" style="rounded=0;orthogonalLoop=1;jettySize=auto;html=1;endArrow=oval;endFill=0;sketch=0;sourcePerimeterSpacing=0;targetPerimeterSpacing=0;endSize=10;jumpStyle=arc;exitX=-0.001;exitY=0.318;exitDx=0;exitDy=0;exitPerimeter=0;" edge="1" parent="1" source="dIC6hFr3uILoWe_exuPJ-8">
          <mxGeometry relative="1" as="geometry">
            <mxPoint x="1610" y="870" as="sourcePoint" />
            <mxPoint x="1433" y="58" as="targetPoint" />
            <Array as="points">
              <mxPoint x="1570" y="879" />
              <mxPoint x="1570" y="58" />
            </Array>
          </mxGeometry>
        </mxCell>
        <mxCell id="dIC6hFr3uILoWe_exuPJ-19" value="" style="rounded=0;orthogonalLoop=1;jettySize=auto;html=1;endArrow=halfCircle;endFill=0;endSize=6;strokeWidth=1;sketch=0;exitX=0.5;exitY=1;exitDx=0;exitDy=0;" edge="1" parent="1" source="yZAO2Q9PIL2GcM7bfzU0-5">
          <mxGeometry relative="1" as="geometry">
            <mxPoint x="1350" y="68" as="sourcePoint" />
            <mxPoint x="1250" y="110" as="targetPoint" />
          </mxGeometry>
        </mxCell>
        <mxCell id="dIC6hFr3uILoWe_exuPJ-20" value="" style="rounded=0;orthogonalLoop=1;jettySize=auto;html=1;endArrow=oval;endFill=0;sketch=0;sourcePerimeterSpacing=0;targetPerimeterSpacing=0;endSize=10;exitX=0.5;exitY=0;exitDx=0;exitDy=0;" edge="1" parent="1" source="yZAO2Q9PIL2GcM7bfzU0-3">
          <mxGeometry relative="1" as="geometry">
            <mxPoint x="1170" y="40" as="sourcePoint" />
            <mxPoint x="1250" y="110" as="targetPoint" />
          </mxGeometry>
        </mxCell>
        <mxCell id="dIC6hFr3uILoWe_exuPJ-21" value="" style="rounded=0;orthogonalLoop=1;jettySize=auto;html=1;endArrow=oval;endFill=0;sketch=0;sourcePerimeterSpacing=0;targetPerimeterSpacing=0;endSize=10;jumpStyle=arc;" edge="1" parent="1">
          <mxGeometry relative="1" as="geometry">
            <mxPoint x="1340" y="210" as="sourcePoint" />
            <mxPoint x="1460" y="370" as="targetPoint" />
            <Array as="points">
              <mxPoint x="1460" y="210" />
            </Array>
          </mxGeometry>
        </mxCell>
        <mxCell id="dIC6hFr3uILoWe_exuPJ-22" value="" style="rounded=0;orthogonalLoop=1;jettySize=auto;html=1;endArrow=halfCircle;endFill=0;endSize=6;strokeWidth=1;sketch=0;exitX=1;exitY=0.111;exitDx=0;exitDy=0;exitPerimeter=0;" edge="1" parent="1" source="dIC6hFr3uILoWe_exuPJ-10">
          <mxGeometry relative="1" as="geometry">
            <mxPoint x="1260" y="90" as="sourcePoint" />
            <mxPoint x="1460" y="370" as="targetPoint" />
            <Array as="points">
              <mxPoint x="1460" y="570" />
            </Array>
          </mxGeometry>
        </mxCell>
        <mxCell id="dIC6hFr3uILoWe_exuPJ-23" value="" style="rounded=0;orthogonalLoop=1;jettySize=auto;html=1;endArrow=halfCircle;endFill=0;endSize=6;strokeWidth=1;sketch=0;" edge="1" parent="1">
          <mxGeometry relative="1" as="geometry">
            <mxPoint x="910" y="246" as="sourcePoint" />
            <mxPoint x="1100" y="620" as="targetPoint" />
            <Array as="points">
              <mxPoint x="990" y="246" />
              <mxPoint x="990" y="620" />
            </Array>
          </mxGeometry>
        </mxCell>
        <mxCell id="dIC6hFr3uILoWe_exuPJ-24" value="" style="rounded=0;orthogonalLoop=1;jettySize=auto;html=1;endArrow=oval;endFill=0;sketch=0;sourcePerimeterSpacing=0;targetPerimeterSpacing=0;endSize=10;" edge="1" parent="1">
          <mxGeometry relative="1" as="geometry">
            <mxPoint x="1160" y="620" as="sourcePoint" />
            <mxPoint x="1100" y="620" as="targetPoint" />
          </mxGeometry>
        </mxCell>
        <mxCell id="b_NHwmT_znsArIm_QB4l-3" value="" style="rounded=0;orthogonalLoop=1;jettySize=auto;html=1;endArrow=halfCircle;endFill=0;endSize=6;strokeWidth=1;sketch=0;exitX=0.999;exitY=0.168;exitDx=0;exitDy=0;jumpStyle=arc;exitPerimeter=0;" edge="1" parent="1" source="VNN5IsyoyI8zjH8ukerN-12">
          <mxGeometry relative="1" as="geometry">
            <mxPoint x="910" y="312.5" as="sourcePoint" />
            <mxPoint x="1100" y="335" as="targetPoint" />
          </mxGeometry>
        </mxCell>
        <mxCell id="b_NHwmT_znsArIm_QB4l-4" value="" style="rounded=0;orthogonalLoop=1;jettySize=auto;html=1;endArrow=oval;endFill=0;sketch=0;sourcePerimeterSpacing=0;targetPerimeterSpacing=0;endSize=10;exitX=0;exitY=0.681;exitDx=0;exitDy=0;jumpStyle=arc;exitPerimeter=0;" edge="1" parent="1" source="yZAO2Q9PIL2GcM7bfzU0-3">
          <mxGeometry relative="1" as="geometry">
            <mxPoint x="1159.1000000000001" y="215.20000000000005" as="sourcePoint" />
            <mxPoint x="1100" y="335" as="targetPoint" />
            <Array as="points">
              <mxPoint x="1130" y="230" />
              <mxPoint x="1130" y="335" />
            </Array>
          </mxGeometry>
        </mxCell>
        <mxCell id="b_NHwmT_znsArIm_QB4l-5" value="«component»&lt;br&gt;&lt;b&gt;Ticket validation&lt;/b&gt;" style="html=1;dropTarget=0;whiteSpace=wrap;" vertex="1" parent="1">
          <mxGeometry x="1160" y="860" width="180" height="90" as="geometry" />
        </mxCell>
        <mxCell id="b_NHwmT_znsArIm_QB4l-6" value="" style="shape=module;jettyWidth=8;jettyHeight=4;" vertex="1" parent="b_NHwmT_znsArIm_QB4l-5">
          <mxGeometry x="1" width="20" height="20" relative="1" as="geometry">
            <mxPoint x="-27" y="7" as="offset" />
          </mxGeometry>
        </mxCell>
        <mxCell id="b_NHwmT_znsArIm_QB4l-7" value="" style="rounded=0;orthogonalLoop=1;jettySize=auto;html=1;endArrow=oval;endFill=0;sketch=0;sourcePerimeterSpacing=0;targetPerimeterSpacing=0;endSize=10;jumpStyle=arc;" edge="1" parent="1">
          <mxGeometry relative="1" as="geometry">
            <mxPoint x="1610" y="860" as="sourcePoint" />
            <mxPoint x="1433" y="-320" as="targetPoint" />
            <Array as="points">
              <mxPoint x="1583" y="860" />
              <mxPoint x="1583" y="-320" />
            </Array>
          </mxGeometry>
        </mxCell>
        <mxCell id="b_NHwmT_znsArIm_QB4l-8" value="" style="rounded=0;orthogonalLoop=1;jettySize=auto;html=1;endArrow=halfCircle;endFill=0;endSize=6;strokeWidth=1;sketch=0;" edge="1" parent="1">
          <mxGeometry relative="1" as="geometry">
            <mxPoint x="1340" y="-320" as="sourcePoint" />
            <mxPoint x="1432.28" y="-320" as="targetPoint" />
          </mxGeometry>
        </mxCell>
        <mxCell id="b_NHwmT_znsArIm_QB4l-9" value="" style="rounded=0;orthogonalLoop=1;jettySize=auto;html=1;endArrow=halfCircle;endFill=0;endSize=6;strokeWidth=1;sketch=0;exitX=1;exitY=0.5;exitDx=0;exitDy=0;" edge="1" parent="1" source="b_NHwmT_znsArIm_QB4l-5">
          <mxGeometry relative="1" as="geometry">
            <mxPoint x="1350" y="638" as="sourcePoint" />
            <mxPoint x="1440" y="905" as="targetPoint" />
          </mxGeometry>
        </mxCell>
        <mxCell id="b_NHwmT_znsArIm_QB4l-10" value="" style="rounded=0;orthogonalLoop=1;jettySize=auto;html=1;endArrow=oval;endFill=0;sketch=0;sourcePerimeterSpacing=0;targetPerimeterSpacing=0;endSize=10;jumpStyle=arc;exitX=1;exitY=0.667;exitDx=0;exitDy=0;exitPerimeter=0;" edge="1" parent="1" source="yZAO2Q9PIL2GcM7bfzU0-15">
          <mxGeometry relative="1" as="geometry">
            <mxPoint x="1390" y="-298" as="sourcePoint" />
            <mxPoint x="1440" y="905" as="targetPoint" />
            <Array as="points">
              <mxPoint x="1520" y="-300" />
              <mxPoint x="1520" y="905" />
            </Array>
          </mxGeometry>
        </mxCell>
        <mxCell id="b_NHwmT_znsArIm_QB4l-13" value="" style="rounded=0;orthogonalLoop=1;jettySize=auto;html=1;endArrow=halfCircle;endFill=0;endSize=6;strokeWidth=1;sketch=0;exitX=1;exitY=0.75;exitDx=0;exitDy=0;jumpStyle=arc;" edge="1" parent="1" source="VNN5IsyoyI8zjH8ukerN-12">
          <mxGeometry relative="1" as="geometry">
            <mxPoint x="920" y="375" as="sourcePoint" />
            <mxPoint x="1100" y="900" as="targetPoint" />
            <Array as="points">
              <mxPoint x="980" y="388" />
              <mxPoint x="980" y="900" />
            </Array>
          </mxGeometry>
        </mxCell>
        <mxCell id="b_NHwmT_znsArIm_QB4l-14" value="" style="rounded=0;orthogonalLoop=1;jettySize=auto;html=1;endArrow=oval;endFill=0;sketch=0;sourcePerimeterSpacing=0;targetPerimeterSpacing=0;endSize=10;" edge="1" parent="1">
          <mxGeometry relative="1" as="geometry">
            <mxPoint x="1160" y="900" as="sourcePoint" />
            <mxPoint x="1100" y="900" as="targetPoint" />
          </mxGeometry>
        </mxCell>
        <mxCell id="b_NHwmT_znsArIm_QB4l-15" value="«component»&lt;br&gt;&lt;b&gt;QR scanner&lt;/b&gt;" style="html=1;dropTarget=0;whiteSpace=wrap;" vertex="1" parent="1">
          <mxGeometry x="1160" y="1040" width="180" height="90" as="geometry" />
        </mxCell>
        <mxCell id="b_NHwmT_znsArIm_QB4l-16" value="" style="shape=module;jettyWidth=8;jettyHeight=4;" vertex="1" parent="b_NHwmT_znsArIm_QB4l-15">
          <mxGeometry x="1" width="20" height="20" relative="1" as="geometry">
            <mxPoint x="-27" y="7" as="offset" />
          </mxGeometry>
        </mxCell>
        <mxCell id="b_NHwmT_znsArIm_QB4l-17" value="" style="rounded=0;orthogonalLoop=1;jettySize=auto;html=1;endArrow=oval;endFill=0;sketch=0;sourcePerimeterSpacing=0;targetPerimeterSpacing=0;endSize=10;exitX=0.5;exitY=0;exitDx=0;exitDy=0;" edge="1" parent="1" source="b_NHwmT_znsArIm_QB4l-15">
          <mxGeometry relative="1" as="geometry">
            <mxPoint x="1170" y="910" as="sourcePoint" />
            <mxPoint x="1250" y="1020" as="targetPoint" />
          </mxGeometry>
        </mxCell>
        <mxCell id="b_NHwmT_znsArIm_QB4l-18" value="" style="rounded=0;orthogonalLoop=1;jettySize=auto;html=1;endArrow=halfCircle;endFill=0;endSize=6;strokeWidth=1;sketch=0;exitX=0.5;exitY=1;exitDx=0;exitDy=0;" edge="1" parent="1" source="b_NHwmT_znsArIm_QB4l-5">
          <mxGeometry relative="1" as="geometry">
            <mxPoint x="740" y="370" as="sourcePoint" />
            <mxPoint x="1250" y="1020" as="targetPoint" />
          </mxGeometry>
        </mxCell>
        <mxCell id="b_NHwmT_znsArIm_QB4l-20" value="" style="rounded=0;orthogonalLoop=1;jettySize=auto;html=1;endArrow=halfCircle;endFill=0;endSize=6;strokeWidth=1;sketch=0;exitX=1;exitY=0.25;exitDx=0;exitDy=0;jumpStyle=arc;" edge="1" parent="1">
          <mxGeometry relative="1" as="geometry">
            <mxPoint x="910" y="474.41" as="sourcePoint" />
            <mxPoint x="1100" y="474.91" as="targetPoint" />
          </mxGeometry>
        </mxCell>
        <mxCell id="b_NHwmT_znsArIm_QB4l-22" value="«component»&lt;br&gt;&lt;b&gt;Booking Optimizer&lt;/b&gt;" style="html=1;dropTarget=0;whiteSpace=wrap;" vertex="1" parent="1">
          <mxGeometry x="1160" y="430" width="180" height="90" as="geometry" />
        </mxCell>
        <mxCell id="b_NHwmT_znsArIm_QB4l-23" value="" style="shape=module;jettyWidth=8;jettyHeight=4;" vertex="1" parent="b_NHwmT_znsArIm_QB4l-22">
          <mxGeometry x="1" width="20" height="20" relative="1" as="geometry">
            <mxPoint x="-27" y="7" as="offset" />
          </mxGeometry>
        </mxCell>
        <mxCell id="b_NHwmT_znsArIm_QB4l-24" value="" style="rounded=0;orthogonalLoop=1;jettySize=auto;html=1;endArrow=oval;endFill=0;sketch=0;sourcePerimeterSpacing=0;targetPerimeterSpacing=0;endSize=10;exitX=0.003;exitY=0.666;exitDx=0;exitDy=0;exitPerimeter=0;" edge="1" parent="1">
          <mxGeometry relative="1" as="geometry">
            <mxPoint x="1160.54" y="474.40999999999985" as="sourcePoint" />
            <mxPoint x="1100" y="474.47" as="targetPoint" />
          </mxGeometry>
        </mxCell>
        <mxCell id="b_NHwmT_znsArIm_QB4l-25" value="" style="rounded=0;orthogonalLoop=1;jettySize=auto;html=1;endArrow=oval;endFill=0;sketch=0;sourcePerimeterSpacing=0;targetPerimeterSpacing=0;endSize=10;exitX=1;exitY=0.5;exitDx=0;exitDy=0;" edge="1" parent="1" source="b_NHwmT_znsArIm_QB4l-22">
          <mxGeometry relative="1" as="geometry">
            <mxPoint x="1170.54" y="492.9399999999998" as="sourcePoint" />
            <mxPoint x="1400" y="370" as="targetPoint" />
            <Array as="points">
              <mxPoint x="1400" y="475" />
            </Array>
          </mxGeometry>
        </mxCell>
        <mxCell id="b_NHwmT_znsArIm_QB4l-26" value="" style="rounded=0;orthogonalLoop=1;jettySize=auto;html=1;endArrow=halfCircle;endFill=0;endSize=6;strokeWidth=1;sketch=0;jumpStyle=arc;" edge="1" parent="1">
          <mxGeometry relative="1" as="geometry">
            <mxPoint x="1340" y="-280" as="sourcePoint" />
            <mxPoint x="1400" y="371.25" as="targetPoint" />
            <Array as="points">
              <mxPoint x="1400" y="-280" />
            </Array>
          </mxGeometry>
        </mxCell>
        <mxCell id="b_NHwmT_znsArIm_QB4l-28" value="" style="rounded=0;orthogonalLoop=1;jettySize=auto;html=1;endArrow=oval;endFill=0;sketch=0;sourcePerimeterSpacing=0;targetPerimeterSpacing=0;endSize=10;exitX=1.006;exitY=0.619;exitDx=0;exitDy=0;exitPerimeter=0;" edge="1" parent="1" source="b_NHwmT_znsArIm_QB4l-22">
          <mxGeometry relative="1" as="geometry">
            <mxPoint x="1350" y="485" as="sourcePoint" />
            <mxPoint x="1430" y="485" as="targetPoint" />
            <Array as="points">
              <mxPoint x="1390" y="485" />
            </Array>
          </mxGeometry>
        </mxCell>
        <mxCell id="b_NHwmT_znsArIm_QB4l-30" value="" style="rounded=0;orthogonalLoop=1;jettySize=auto;html=1;endArrow=halfCircle;endFill=0;endSize=6;strokeWidth=1;sketch=0;exitX=-0.002;exitY=0.552;exitDx=0;exitDy=0;exitPerimeter=0;jumpStyle=arc;" edge="1" parent="1" source="dIC6hFr3uILoWe_exuPJ-8">
          <mxGeometry relative="1" as="geometry">
            <mxPoint x="1606.04" y="899.9900000000002" as="sourcePoint" />
            <mxPoint x="1430" y="485" as="targetPoint" />
            <Array as="points">
              <mxPoint x="1550" y="900" />
              <mxPoint x="1550" y="485" />
            </Array>
          </mxGeometry>
        </mxCell>
        <mxCell id="b_NHwmT_znsArIm_QB4l-31" value="«component»&lt;br&gt;&lt;b&gt;QR generator&lt;/b&gt;" style="html=1;dropTarget=0;whiteSpace=wrap;" vertex="1" parent="1">
          <mxGeometry x="1160" y="320" width="180" height="90" as="geometry" />
        </mxCell>
        <mxCell id="b_NHwmT_znsArIm_QB4l-32" value="" style="shape=module;jettyWidth=8;jettyHeight=4;" vertex="1" parent="b_NHwmT_znsArIm_QB4l-31">
          <mxGeometry x="1" width="20" height="20" relative="1" as="geometry">
            <mxPoint x="-27" y="7" as="offset" />
          </mxGeometry>
        </mxCell>
        <mxCell id="b_NHwmT_znsArIm_QB4l-35" value="" style="rounded=0;orthogonalLoop=1;jettySize=auto;html=1;endArrow=oval;endFill=0;sketch=0;sourcePerimeterSpacing=0;targetPerimeterSpacing=0;endSize=10;jumpStyle=arc;" edge="1" parent="1">
          <mxGeometry relative="1" as="geometry">
            <mxPoint x="1610" y="910" as="sourcePoint" />
            <mxPoint x="1433" y="340" as="targetPoint" />
            <Array as="points">
              <mxPoint x="1540" y="910" />
              <mxPoint x="1540" y="340" />
            </Array>
          </mxGeometry>
        </mxCell>
        <mxCell id="b_NHwmT_znsArIm_QB4l-36" value="" style="rounded=0;orthogonalLoop=1;jettySize=auto;html=1;endArrow=halfCircle;endFill=0;endSize=6;strokeWidth=1;sketch=0;jumpStyle=arc;" edge="1" parent="1">
          <mxGeometry relative="1" as="geometry">
            <mxPoint x="1340" y="340" as="sourcePoint" />
            <mxPoint x="1433" y="340" as="targetPoint" />
          </mxGeometry>
        </mxCell>
        <mxCell id="b_NHwmT_znsArIm_QB4l-37" value="" style="rounded=0;orthogonalLoop=1;jettySize=auto;html=1;endArrow=halfCircle;endFill=0;endSize=6;strokeWidth=1;sketch=0;exitX=1;exitY=0.5;exitDx=0;exitDy=0;jumpStyle=arc;" edge="1" parent="1" source="VNN5IsyoyI8zjH8ukerN-20">
          <mxGeometry relative="1" as="geometry">
            <mxPoint x="920" y="493" as="sourcePoint" />
            <mxPoint x="1100" y="500" as="targetPoint" />
            <Array as="points">
              <mxPoint x="970" y="635" />
              <mxPoint x="970" y="500" />
            </Array>
          </mxGeometry>
        </mxCell>
        <mxCell id="b_NHwmT_znsArIm_QB4l-38" value="" style="rounded=0;orthogonalLoop=1;jettySize=auto;html=1;endArrow=oval;endFill=0;sketch=0;sourcePerimeterSpacing=0;targetPerimeterSpacing=0;endSize=10;exitX=0;exitY=0.75;exitDx=0;exitDy=0;" edge="1" parent="1">
          <mxGeometry relative="1" as="geometry">
            <mxPoint x="1160" y="499.5" as="sourcePoint" />
            <mxPoint x="1100" y="500" as="targetPoint" />
          </mxGeometry>
        </mxCell>
        <mxCell id="b_NHwmT_znsArIm_QB4l-39" value="«component»&lt;br&gt;&lt;b&gt;Registration&lt;/b&gt;" style="html=1;dropTarget=0;whiteSpace=wrap;" vertex="1" parent="1">
          <mxGeometry x="1160" y="1170" width="180" height="90" as="geometry" />
        </mxCell>
        <mxCell id="b_NHwmT_znsArIm_QB4l-40" value="" style="shape=module;jettyWidth=8;jettyHeight=4;" vertex="1" parent="b_NHwmT_znsArIm_QB4l-39">
          <mxGeometry x="1" width="20" height="20" relative="1" as="geometry">
            <mxPoint x="-27" y="7" as="offset" />
          </mxGeometry>
        </mxCell>
        <mxCell id="b_NHwmT_znsArIm_QB4l-41" value="" style="rounded=0;orthogonalLoop=1;jettySize=auto;html=1;endArrow=oval;endFill=0;sketch=0;sourcePerimeterSpacing=0;targetPerimeterSpacing=0;endSize=10;exitX=0;exitY=0.5;exitDx=0;exitDy=0;" edge="1" parent="1" source="b_NHwmT_znsArIm_QB4l-39">
          <mxGeometry relative="1" as="geometry">
            <mxPoint x="1170" y="910" as="sourcePoint" />
            <mxPoint x="1100" y="1215" as="targetPoint" />
          </mxGeometry>
        </mxCell>
        <mxCell id="b_NHwmT_znsArIm_QB4l-42" value="" style="rounded=0;orthogonalLoop=1;jettySize=auto;html=1;endArrow=halfCircle;endFill=0;endSize=6;strokeWidth=1;sketch=0;exitX=1;exitY=0.667;exitDx=0;exitDy=0;jumpStyle=arc;exitPerimeter=0;" edge="1" parent="1" source="VNN5IsyoyI8zjH8ukerN-20">
          <mxGeometry relative="1" as="geometry">
            <mxPoint x="919" y="652.5" as="sourcePoint" />
            <mxPoint x="1100" y="1215" as="targetPoint" />
            <Array as="points">
              <mxPoint x="970" y="650" />
              <mxPoint x="970" y="1215" />
            </Array>
          </mxGeometry>
        </mxCell>
        <mxCell id="b_NHwmT_znsArIm_QB4l-43" value="" style="rounded=0;orthogonalLoop=1;jettySize=auto;html=1;endArrow=oval;endFill=0;sketch=0;sourcePerimeterSpacing=0;targetPerimeterSpacing=0;endSize=10;exitX=1;exitY=0.5;exitDx=0;exitDy=0;" edge="1" parent="1" source="b_NHwmT_znsArIm_QB4l-39">
          <mxGeometry relative="1" as="geometry">
            <mxPoint x="1170" y="1225" as="sourcePoint" />
            <mxPoint x="1430" y="1215" as="targetPoint" />
          </mxGeometry>
        </mxCell>
        <mxCell id="b_NHwmT_znsArIm_QB4l-44" value="" style="rounded=0;orthogonalLoop=1;jettySize=auto;html=1;endArrow=halfCircle;endFill=0;endSize=6;strokeWidth=1;sketch=0;" edge="1" parent="1">
          <mxGeometry relative="1" as="geometry">
            <mxPoint x="1700" y="940" as="sourcePoint" />
            <mxPoint x="1430" y="1215" as="targetPoint" />
            <Array as="points">
              <mxPoint x="1700" y="1215" />
            </Array>
          </mxGeometry>
        </mxCell>
        <mxCell id="ly5QFdd2ROse-GiwOHt2-3" value="«component»&lt;br&gt;&lt;b&gt;conductor management&lt;/b&gt;" style="html=1;dropTarget=0;whiteSpace=wrap;" vertex="1" parent="1">
          <mxGeometry x="1160" y="1310" width="180" height="90" as="geometry" />
        </mxCell>
        <mxCell id="ly5QFdd2ROse-GiwOHt2-4" value="" style="shape=module;jettyWidth=8;jettyHeight=4;" vertex="1" parent="ly5QFdd2ROse-GiwOHt2-3">
          <mxGeometry x="1" width="20" height="20" relative="1" as="geometry">
            <mxPoint x="-27" y="7" as="offset" />
          </mxGeometry>
        </mxCell>
        <mxCell id="ly5QFdd2ROse-GiwOHt2-6" value="" style="rounded=0;orthogonalLoop=1;jettySize=auto;html=1;endArrow=halfCircle;endFill=0;endSize=6;strokeWidth=1;sketch=0;exitX=1;exitY=0.5;exitDx=0;exitDy=0;" edge="1" parent="1" source="dIC6hFr3uILoWe_exuPJ-1">
          <mxGeometry relative="1" as="geometry">
            <mxPoint x="1020" y="1330" as="sourcePoint" />
            <mxPoint x="1100" y="1341" as="targetPoint" />
            <Array as="points">
              <mxPoint x="950" y="765" />
              <mxPoint x="950" y="1341" />
            </Array>
          </mxGeometry>
        </mxCell>
        <mxCell id="ly5QFdd2ROse-GiwOHt2-7" value="" style="rounded=0;orthogonalLoop=1;jettySize=auto;html=1;endArrow=oval;endFill=0;sketch=0;sourcePerimeterSpacing=0;targetPerimeterSpacing=0;endSize=10;exitX=0;exitY=0.335;exitDx=0;exitDy=0;exitPerimeter=0;" edge="1" parent="1">
          <mxGeometry relative="1" as="geometry">
            <mxPoint x="1160" y="1341.1499999999996" as="sourcePoint" />
            <mxPoint x="1100" y="1341" as="targetPoint" />
          </mxGeometry>
        </mxCell>
        <mxCell id="ly5QFdd2ROse-GiwOHt2-8" value="" style="rounded=0;orthogonalLoop=1;jettySize=auto;html=1;endArrow=halfCircle;endFill=0;endSize=6;strokeWidth=1;sketch=0;exitX=1;exitY=0.25;exitDx=0;exitDy=0;jumpStyle=arc;" edge="1" parent="1" source="dIC6hFr3uILoWe_exuPJ-1">
          <mxGeometry relative="1" as="geometry">
            <mxPoint x="875" y="178" as="sourcePoint" />
            <mxPoint x="1100" y="60" as="targetPoint" />
            <Array as="points">
              <mxPoint x="960" y="743" />
              <mxPoint x="960" y="60" />
            </Array>
          </mxGeometry>
        </mxCell>
        <mxCell id="ly5QFdd2ROse-GiwOHt2-9" value="" style="rounded=0;orthogonalLoop=1;jettySize=auto;html=1;endArrow=oval;endFill=0;sketch=0;sourcePerimeterSpacing=0;targetPerimeterSpacing=0;endSize=10;exitX=-0.001;exitY=0.447;exitDx=0;exitDy=0;exitPerimeter=0;" edge="1" parent="1">
          <mxGeometry relative="1" as="geometry">
            <mxPoint x="1161" y="60" as="sourcePoint" />
            <mxPoint x="1101" y="60" as="targetPoint" />
          </mxGeometry>
        </mxCell>
        <mxCell id="ly5QFdd2ROse-GiwOHt2-11" value="" style="rounded=0;orthogonalLoop=1;jettySize=auto;html=1;endArrow=oval;endFill=0;sketch=0;sourcePerimeterSpacing=0;targetPerimeterSpacing=0;endSize=10;exitX=1.02;exitY=0.895;exitDx=0;exitDy=0;exitPerimeter=0;jumpStyle=arc;" edge="1" parent="1">
          <mxGeometry relative="1" as="geometry">
            <mxPoint x="1340.6" y="626.5500000000002" as="sourcePoint" />
            <mxPoint x="1470" y="1060" as="targetPoint" />
            <Array as="points">
              <mxPoint x="1470" y="627" />
            </Array>
          </mxGeometry>
        </mxCell>
        <mxCell id="ly5QFdd2ROse-GiwOHt2-12" value="" style="rounded=0;orthogonalLoop=1;jettySize=auto;html=1;endArrow=halfCircle;endFill=0;endSize=6;strokeWidth=1;sketch=0;exitX=1;exitY=0.5;exitDx=0;exitDy=0;jumpStyle=arc;" edge="1" parent="1" source="ly5QFdd2ROse-GiwOHt2-3">
          <mxGeometry relative="1" as="geometry">
            <mxPoint x="1450" y="940" as="sourcePoint" />
            <mxPoint x="1470" y="1060" as="targetPoint" />
            <Array as="points">
              <mxPoint x="1470" y="1355" />
            </Array>
          </mxGeometry>
        </mxCell>
        <mxCell id="ly5QFdd2ROse-GiwOHt2-13" value="«component»&lt;br&gt;&lt;b&gt;Report generation&lt;/b&gt;" style="html=1;dropTarget=0;whiteSpace=wrap;" vertex="1" parent="1">
          <mxGeometry x="1160" y="1460" width="180" height="90" as="geometry" />
        </mxCell>
        <mxCell id="ly5QFdd2ROse-GiwOHt2-14" value="" style="shape=module;jettyWidth=8;jettyHeight=4;" vertex="1" parent="ly5QFdd2ROse-GiwOHt2-13">
          <mxGeometry x="1" width="20" height="20" relative="1" as="geometry">
            <mxPoint x="-27" y="7" as="offset" />
          </mxGeometry>
        </mxCell>
        <mxCell id="ly5QFdd2ROse-GiwOHt2-15" value="" style="rounded=0;orthogonalLoop=1;jettySize=auto;html=1;endArrow=oval;endFill=0;sketch=0;sourcePerimeterSpacing=0;targetPerimeterSpacing=0;endSize=10;exitX=0;exitY=0.5;exitDx=0;exitDy=0;" edge="1" parent="1" source="ly5QFdd2ROse-GiwOHt2-13">
          <mxGeometry relative="1" as="geometry">
            <mxPoint x="1170" y="1351.1499999999996" as="sourcePoint" />
            <mxPoint x="1100" y="1505" as="targetPoint" />
          </mxGeometry>
        </mxCell>
        <mxCell id="ly5QFdd2ROse-GiwOHt2-16" value="" style="rounded=0;orthogonalLoop=1;jettySize=auto;html=1;endArrow=halfCircle;endFill=0;endSize=6;strokeWidth=1;sketch=0;exitX=1;exitY=0.5;exitDx=0;exitDy=0;" edge="1" parent="1">
          <mxGeometry relative="1" as="geometry">
            <mxPoint x="911" y="795" as="sourcePoint" />
            <mxPoint x="1100" y="1505" as="targetPoint" />
            <Array as="points">
              <mxPoint x="940" y="795" />
              <mxPoint x="940" y="1505" />
            </Array>
          </mxGeometry>
        </mxCell>
        <mxCell id="ly5QFdd2ROse-GiwOHt2-17" value="" style="rounded=0;orthogonalLoop=1;jettySize=auto;html=1;endArrow=halfCircle;endFill=0;endSize=6;strokeWidth=1;sketch=0;exitX=0.566;exitY=1.009;exitDx=0;exitDy=0;exitPerimeter=0;" edge="1" parent="1" source="dIC6hFr3uILoWe_exuPJ-8">
          <mxGeometry relative="1" as="geometry">
            <mxPoint x="1710" y="950" as="sourcePoint" />
            <mxPoint x="1430" y="1500" as="targetPoint" />
            <Array as="points">
              <mxPoint x="1710" y="1500" />
            </Array>
          </mxGeometry>
        </mxCell>
        <mxCell id="ly5QFdd2ROse-GiwOHt2-18" value="" style="rounded=0;orthogonalLoop=1;jettySize=auto;html=1;endArrow=oval;endFill=0;sketch=0;sourcePerimeterSpacing=0;targetPerimeterSpacing=0;endSize=10;exitX=1;exitY=0.5;exitDx=0;exitDy=0;" edge="1" parent="1">
          <mxGeometry relative="1" as="geometry">
            <mxPoint x="1340" y="1500" as="sourcePoint" />
            <mxPoint x="1430" y="1500" as="targetPoint" />
          </mxGeometry>
        </mxCell>
        <mxCell id="ly5QFdd2ROse-GiwOHt2-19" value="" style="rounded=0;orthogonalLoop=1;jettySize=auto;html=1;endArrow=halfCircle;endFill=0;endSize=6;strokeWidth=1;sketch=0;exitX=1;exitY=0.25;exitDx=0;exitDy=0;jumpStyle=arc;" edge="1" parent="1" source="VNN5IsyoyI8zjH8ukerN-28">
          <mxGeometry relative="1" as="geometry">
            <mxPoint x="921" y="805" as="sourcePoint" />
            <mxPoint x="1440" y="990" as="targetPoint" />
            <Array as="points">
              <mxPoint x="930" y="873" />
              <mxPoint x="930" y="990" />
            </Array>
          </mxGeometry>
        </mxCell>
        <mxCell id="ly5QFdd2ROse-GiwOHt2-21" value="" style="rounded=0;orthogonalLoop=1;jettySize=auto;html=1;endArrow=oval;endFill=0;sketch=0;sourcePerimeterSpacing=0;targetPerimeterSpacing=0;endSize=10;exitX=0.352;exitY=1.018;exitDx=0;exitDy=0;exitPerimeter=0;" edge="1" parent="1" source="dIC6hFr3uILoWe_exuPJ-8">
          <mxGeometry relative="1" as="geometry">
            <mxPoint x="1710" y="730" as="sourcePoint" />
            <mxPoint x="1440" y="990" as="targetPoint" />
            <Array as="points">
              <mxPoint x="1673" y="990" />
            </Array>
          </mxGeometry>
        </mxCell>
        <mxCell id="ly5QFdd2ROse-GiwOHt2-23" value="" style="rounded=0;orthogonalLoop=1;jettySize=auto;html=1;endArrow=oval;endFill=0;sketch=0;sourcePerimeterSpacing=0;targetPerimeterSpacing=0;endSize=10;exitX=0;exitY=0.25;exitDx=0;exitDy=0;" edge="1" parent="1" source="yZAO2Q9PIL2GcM7bfzU0-3">
          <mxGeometry relative="1" as="geometry">
            <mxPoint x="1130" y="190" as="sourcePoint" />
            <mxPoint x="1100" y="110" as="targetPoint" />
            <Array as="points">
              <mxPoint x="1130" y="190" />
              <mxPoint x="1130" y="110" />
            </Array>
          </mxGeometry>
        </mxCell>
        <mxCell id="ly5QFdd2ROse-GiwOHt2-25" value="" style="rounded=0;orthogonalLoop=1;jettySize=auto;html=1;endArrow=halfCircle;endFill=0;endSize=6;strokeWidth=1;sketch=0;" edge="1" parent="1">
          <mxGeometry relative="1" as="geometry">
            <mxPoint x="516" y="110" as="sourcePoint" />
            <mxPoint x="1100" y="110" as="targetPoint" />
          </mxGeometry>
        </mxCell>
        <mxCell id="ly5QFdd2ROse-GiwOHt2-26" value="all bookings" style="text;html=1;align=center;verticalAlign=middle;resizable=0;points=[];autosize=1;strokeColor=none;fillColor=none;" vertex="1" parent="1">
          <mxGeometry x="1045" y="-312" width="90" height="30" as="geometry" />
        </mxCell>
        <mxCell id="ly5QFdd2ROse-GiwOHt2-27" value="booking data" style="text;html=1;align=center;verticalAlign=middle;resizable=0;points=[];autosize=1;strokeColor=none;fillColor=none;" vertex="1" parent="1">
          <mxGeometry x="1395" y="-362" width="90" height="30" as="geometry" />
        </mxCell>
        <mxCell id="ly5QFdd2ROse-GiwOHt2-28" value="input a delay" style="text;html=1;align=center;verticalAlign=middle;resizable=0;points=[];autosize=1;strokeColor=none;fillColor=none;" vertex="1" parent="1">
          <mxGeometry x="1055" y="-172" width="90" height="30" as="geometry" />
        </mxCell>
        <mxCell id="ly5QFdd2ROse-GiwOHt2-29" value="bookings" style="text;html=1;align=center;verticalAlign=middle;resizable=0;points=[];autosize=1;strokeColor=none;fillColor=none;" vertex="1" parent="1">
          <mxGeometry x="1405" y="868" width="70" height="30" as="geometry" />
        </mxCell>
        <mxCell id="ly5QFdd2ROse-GiwOHt2-30" value="busses info" style="text;html=1;align=center;verticalAlign=middle;resizable=0;points=[];autosize=1;strokeColor=none;fillColor=none;" vertex="1" parent="1">
          <mxGeometry x="1060" width="80" height="30" as="geometry" />
        </mxCell>
        <mxCell id="ly5QFdd2ROse-GiwOHt2-31" value="busses info" style="text;html=1;align=center;verticalAlign=middle;resizable=0;points=[];autosize=1;strokeColor=none;fillColor=none;" vertex="1" parent="1">
          <mxGeometry x="1395" width="80" height="30" as="geometry" />
        </mxCell>
        <mxCell id="ly5QFdd2ROse-GiwOHt2-32" value="bus add/edit" style="text;html=1;align=center;verticalAlign=middle;resizable=0;points=[];autosize=1;strokeColor=none;fillColor=none;" vertex="1" parent="1">
          <mxGeometry x="1055" y="68" width="90" height="30" as="geometry" />
        </mxCell>
        <mxCell id="ly5QFdd2ROse-GiwOHt2-34" value="User validation" style="text;html=1;align=center;verticalAlign=middle;resizable=0;points=[];autosize=1;strokeColor=none;fillColor=none;" vertex="1" parent="1">
          <mxGeometry x="1035" y="110" width="100" height="30" as="geometry" />
        </mxCell>
        <mxCell id="ly5QFdd2ROse-GiwOHt2-35" value="Bus/conductor verification" style="text;html=1;align=center;verticalAlign=middle;resizable=0;points=[];autosize=1;strokeColor=none;fillColor=none;" vertex="1" parent="1">
          <mxGeometry x="1000" y="178" width="160" height="30" as="geometry" />
        </mxCell>
        <mxCell id="ly5QFdd2ROse-GiwOHt2-36" value="Bus Data" style="text;html=1;align=center;verticalAlign=middle;resizable=0;points=[];autosize=1;strokeColor=none;fillColor=none;" vertex="1" parent="1">
          <mxGeometry x="1395" y="68" width="70" height="30" as="geometry" />
        </mxCell>
        <mxCell id="ly5QFdd2ROse-GiwOHt2-37" value="See/edit shudule" style="text;html=1;align=center;verticalAlign=middle;resizable=0;points=[];autosize=1;strokeColor=none;fillColor=none;" vertex="1" parent="1">
          <mxGeometry x="1035" y="274.34" width="110" height="30" as="geometry" />
        </mxCell>
        <mxCell id="ly5QFdd2ROse-GiwOHt2-38" value="submit details" style="text;html=1;align=center;verticalAlign=middle;resizable=0;points=[];autosize=1;strokeColor=none;fillColor=none;" vertex="1" parent="1">
          <mxGeometry x="1045" y="335" width="100" height="30" as="geometry" />
        </mxCell>
        <mxCell id="ly5QFdd2ROse-GiwOHt2-39" value="" style="rounded=0;orthogonalLoop=1;jettySize=auto;html=1;endArrow=oval;endFill=0;sketch=0;sourcePerimeterSpacing=0;targetPerimeterSpacing=0;endSize=10;exitX=1;exitY=0.5;exitDx=0;exitDy=0;jumpStyle=arc;" edge="1" parent="1" source="b_NHwmT_znsArIm_QB4l-31">
          <mxGeometry relative="1" as="geometry">
            <mxPoint x="1351" y="496" as="sourcePoint" />
            <mxPoint x="1380" y="1060" as="targetPoint" />
            <Array as="points">
              <mxPoint x="1380" y="365" />
            </Array>
          </mxGeometry>
        </mxCell>
        <mxCell id="ly5QFdd2ROse-GiwOHt2-40" value="" style="rounded=0;orthogonalLoop=1;jettySize=auto;html=1;endArrow=halfCircle;endFill=0;endSize=6;strokeWidth=1;sketch=0;jumpStyle=arc;exitX=1;exitY=0.25;exitDx=0;exitDy=0;" edge="1" parent="1" source="b_NHwmT_znsArIm_QB4l-39">
          <mxGeometry relative="1" as="geometry">
            <mxPoint x="1350" y="1350" as="sourcePoint" />
            <mxPoint x="1380" y="1060" as="targetPoint" />
            <Array as="points">
              <mxPoint x="1380" y="1193" />
            </Array>
          </mxGeometry>
        </mxCell>
        <mxCell id="ly5QFdd2ROse-GiwOHt2-41" value="Booking options" style="text;html=1;align=center;verticalAlign=middle;resizable=0;points=[];autosize=1;strokeColor=none;fillColor=none;" vertex="1" parent="1">
          <mxGeometry x="1045" y="438" width="110" height="30" as="geometry" />
        </mxCell>
        <mxCell id="ly5QFdd2ROse-GiwOHt2-43" value="Booking options" style="text;html=1;align=center;verticalAlign=middle;resizable=0;points=[];autosize=1;strokeColor=none;fillColor=none;" vertex="1" parent="1">
          <mxGeometry x="1050" y="500" width="110" height="30" as="geometry" />
        </mxCell>
        <mxCell id="ly5QFdd2ROse-GiwOHt2-44" value="Conductor info" style="text;html=1;align=center;verticalAlign=middle;resizable=0;points=[];autosize=1;strokeColor=none;fillColor=none;" vertex="1" parent="1">
          <mxGeometry x="1030" y="568" width="100" height="30" as="geometry" />
        </mxCell>
        <mxCell id="ly5QFdd2ROse-GiwOHt2-45" value="apply for&amp;nbsp;" style="text;html=1;align=center;verticalAlign=middle;resizable=0;points=[];autosize=1;strokeColor=none;fillColor=none;" vertex="1" parent="1">
          <mxGeometry x="1065" y="628" width="70" height="30" as="geometry" />
        </mxCell>
        <mxCell id="ly5QFdd2ROse-GiwOHt2-46" value="" style="rounded=0;orthogonalLoop=1;jettySize=auto;html=1;endArrow=halfCircle;endFill=0;endSize=6;strokeWidth=1;sketch=0;exitX=1;exitY=0.5;exitDx=0;exitDy=0;jumpStyle=arc;jumpSize=6;" edge="1" parent="1">
          <mxGeometry relative="1" as="geometry">
            <mxPoint x="1341" y="775" as="sourcePoint" />
            <mxPoint x="1500" y="370" as="targetPoint" />
            <Array as="points">
              <mxPoint x="1500" y="775" />
            </Array>
          </mxGeometry>
        </mxCell>
        <mxCell id="ly5QFdd2ROse-GiwOHt2-47" value="" style="rounded=0;orthogonalLoop=1;jettySize=auto;html=1;endArrow=oval;endFill=0;sketch=0;sourcePerimeterSpacing=0;targetPerimeterSpacing=0;endSize=10;jumpStyle=arc;" edge="1" parent="1">
          <mxGeometry relative="1" as="geometry">
            <mxPoint x="1340" y="-290" as="sourcePoint" />
            <mxPoint x="1500" y="370" as="targetPoint" />
            <Array as="points">
              <mxPoint x="1500" y="-290" />
            </Array>
          </mxGeometry>
        </mxCell>
        <mxCell id="ly5QFdd2ROse-GiwOHt2-48" value="QR" style="text;html=1;align=center;verticalAlign=middle;resizable=0;points=[];autosize=1;strokeColor=none;fillColor=none;" vertex="1" parent="1">
          <mxGeometry x="1415" y="310" width="40" height="30" as="geometry" />
        </mxCell>
        <mxCell id="ly5QFdd2ROse-GiwOHt2-49" value="add booking" style="text;html=1;align=center;verticalAlign=middle;resizable=0;points=[];autosize=1;strokeColor=none;fillColor=none;" vertex="1" parent="1">
          <mxGeometry x="1357" y="372" width="90" height="30" as="geometry" />
        </mxCell>
        <mxCell id="ly5QFdd2ROse-GiwOHt2-53" value="existing bus/booking/" style="text;html=1;align=center;verticalAlign=middle;resizable=0;points=[];autosize=1;strokeColor=none;fillColor=none;" vertex="1" parent="1">
          <mxGeometry x="1357" y="490" width="140" height="30" as="geometry" />
        </mxCell>
        <mxCell id="ly5QFdd2ROse-GiwOHt2-54" value="conductor data" style="text;html=1;align=center;verticalAlign=middle;resizable=0;points=[];autosize=1;strokeColor=none;fillColor=none;" vertex="1" parent="1">
          <mxGeometry x="1380" y="588" width="100" height="30" as="geometry" />
        </mxCell>
        <mxCell id="ly5QFdd2ROse-GiwOHt2-55" value="booking info" style="text;html=1;align=center;verticalAlign=middle;resizable=0;points=[];autosize=1;strokeColor=none;fillColor=none;" vertex="1" parent="1">
          <mxGeometry x="1035" y="908" width="90" height="30" as="geometry" />
        </mxCell>
        <mxCell id="ly5QFdd2ROse-GiwOHt2-56" value="booking info for relavent acc." style="text;html=1;align=center;verticalAlign=middle;resizable=0;points=[];autosize=1;strokeColor=none;fillColor=none;" vertex="1" parent="1">
          <mxGeometry x="1155" y="990" width="180" height="30" as="geometry" />
        </mxCell>
        <mxCell id="ly5QFdd2ROse-GiwOHt2-57" value="Shedulers info" style="text;html=1;align=center;verticalAlign=middle;resizable=0;points=[];autosize=1;strokeColor=none;fillColor=none;" vertex="1" parent="1">
          <mxGeometry x="1390" y="988" width="100" height="30" as="geometry" />
        </mxCell>
        <mxCell id="ly5QFdd2ROse-GiwOHt2-58" value="conductors info" style="text;html=1;align=center;verticalAlign=middle;resizable=0;points=[];autosize=1;strokeColor=none;fillColor=none;" vertex="1" parent="1">
          <mxGeometry x="1415" y="1070" width="100" height="30" as="geometry" />
        </mxCell>
        <mxCell id="ly5QFdd2ROse-GiwOHt2-59" value="acc. info" style="text;html=1;align=center;verticalAlign=middle;resizable=0;points=[];autosize=1;strokeColor=none;fillColor=none;" vertex="1" parent="1">
          <mxGeometry x="1345" y="1030" width="70" height="30" as="geometry" />
        </mxCell>
        <mxCell id="ly5QFdd2ROse-GiwOHt2-60" value="acc. info" style="text;html=1;align=center;verticalAlign=middle;resizable=0;points=[];autosize=1;strokeColor=none;fillColor=none;" vertex="1" parent="1">
          <mxGeometry x="1395" y="1220" width="70" height="30" as="geometry" />
        </mxCell>
        <mxCell id="ly5QFdd2ROse-GiwOHt2-61" value="revenue /booking data" style="text;html=1;align=center;verticalAlign=middle;resizable=0;points=[];autosize=1;strokeColor=none;fillColor=none;" vertex="1" parent="1">
          <mxGeometry x="1365" y="1460" width="140" height="30" as="geometry" />
        </mxCell>
        <mxCell id="ly5QFdd2ROse-GiwOHt2-62" value="input info" style="text;html=1;align=center;verticalAlign=middle;resizable=0;points=[];autosize=1;strokeColor=none;fillColor=none;" vertex="1" parent="1">
          <mxGeometry x="1065" y="1178" width="70" height="30" as="geometry" />
        </mxCell>
        <mxCell id="ly5QFdd2ROse-GiwOHt2-63" value="" style="rounded=0;orthogonalLoop=1;jettySize=auto;html=1;endArrow=halfCircle;endFill=0;endSize=6;strokeWidth=1;sketch=0;exitX=1.007;exitY=0.604;exitDx=0;exitDy=0;jumpStyle=arc;exitPerimeter=0;" edge="1" parent="1" source="VNN5IsyoyI8zjH8ukerN-12">
          <mxGeometry relative="1" as="geometry">
            <mxPoint x="920" y="345" as="sourcePoint" />
            <mxPoint x="1100" y="374" as="targetPoint" />
          </mxGeometry>
        </mxCell>
        <mxCell id="ly5QFdd2ROse-GiwOHt2-64" value="" style="rounded=0;orthogonalLoop=1;jettySize=auto;html=1;endArrow=oval;endFill=0;sketch=0;sourcePerimeterSpacing=0;targetPerimeterSpacing=0;endSize=10;exitX=0.002;exitY=0.602;exitDx=0;exitDy=0;exitPerimeter=0;" edge="1" parent="1" source="b_NHwmT_znsArIm_QB4l-31">
          <mxGeometry relative="1" as="geometry">
            <mxPoint x="1171" y="70" as="sourcePoint" />
            <mxPoint x="1100" y="374" as="targetPoint" />
          </mxGeometry>
        </mxCell>
        <mxCell id="ly5QFdd2ROse-GiwOHt2-65" value="Download QR" style="text;html=1;align=center;verticalAlign=middle;resizable=0;points=[];autosize=1;strokeColor=none;fillColor=none;" vertex="1" parent="1">
          <mxGeometry x="1045" y="372" width="100" height="30" as="geometry" />
        </mxCell>
        <mxCell id="ly5QFdd2ROse-GiwOHt2-66" value="Conductors assign" style="text;html=1;align=center;verticalAlign=middle;resizable=0;points=[];autosize=1;strokeColor=none;fillColor=none;" vertex="1" parent="1">
          <mxGeometry x="1020" y="1350" width="120" height="30" as="geometry" />
        </mxCell>
        <mxCell id="ly5QFdd2ROse-GiwOHt2-67" value="relevant reports" style="text;html=1;align=center;verticalAlign=middle;resizable=0;points=[];autosize=1;strokeColor=none;fillColor=none;" vertex="1" parent="1">
          <mxGeometry x="1035" y="1468" width="110" height="30" as="geometry" />
        </mxCell>
      </root>
    </mxGraphModel>
  </diagram>
</mxfile>
